<svg width="20" height="20" viewBox="0 0 20 20" fill="none" xmlns="http://www.w3.org/2000/svg">
<g clip-path="url(#clip0_162_681)">
<path d="M19.7873 8.1275L10.307 1.18622C10.1242 1.05239 9.87583 1.05239 9.6931 1.18622L0.212718 8.1275C-0.0188446 8.29707 -0.069157 8.62223 0.100413 8.85379C0.269983 9.08536 0.595178 9.13559 0.826701 8.9661L10 2.24954L19.1733 8.96606C19.2658 9.03383 19.3733 9.06645 19.4799 9.06645C19.6399 9.06645 19.7978 8.99282 19.8996 8.85375C20.0692 8.62223 20.0189 8.29707 19.7873 8.1275Z" fill="white"/>
<path d="M17.2752 9.08371C16.9883 9.08371 16.7556 9.31637 16.7556 9.60336V17.8748H12.5985V13.3597C12.5985 11.9269 11.4328 10.7613 10 10.7613C8.56729 10.7613 7.40159 11.927 7.40159 13.3597V17.8748H3.24444V9.6034C3.24444 9.3164 3.01174 9.08375 2.72479 9.08375C2.43783 9.08375 2.20514 9.3164 2.20514 9.6034V18.3945C2.20514 18.6815 2.43783 18.9142 2.72479 18.9142H7.92123C8.19451 18.9142 8.41815 18.703 8.43885 18.435C8.4401 18.4228 8.44088 18.4096 8.44088 18.3945V13.3598C8.44088 12.5 9.1403 11.8006 10 11.8006C10.8597 11.8006 11.5592 12.5001 11.5592 13.3598V18.3945C11.5592 18.4095 11.5599 18.4225 11.5612 18.4345C11.5817 18.7028 11.8054 18.9142 12.0788 18.9142H17.2753C17.5623 18.9142 17.7949 18.6815 17.7949 18.3945V9.6034C17.7949 9.31637 17.5622 9.08371 17.2752 9.08371Z" fill="white"/>
</g>
<defs>
<clipPath id="clip0_162_681">
<rect width="20" height="20" fill="white"/>
</clipPath>
</defs>
</svg>
