<svg width="17" height="16" viewBox="0 0 17 16" fill="none" xmlns="http://www.w3.org/2000/svg">
<path d="M10.7331 11.6969C10.5681 11.6969 10.4342 11.8309 10.4342 11.9959V14.7284H0.676015V1.85408H10.434V4.12607C10.434 4.29128 10.5679 4.42501 10.7329 4.42501C10.8979 4.42501 11.0319 4.29128 11.0319 4.12607V1.55514C11.0319 1.38992 10.8979 1.2562 10.7329 1.2562H0.37707C0.211853 1.2562 0.078125 1.38992 0.078125 1.55514V15.0272C0.078125 15.1922 0.211853 15.3261 0.37707 15.3261H10.7329C10.8979 15.3261 11.0319 15.1922 11.0319 15.0272V11.9959C11.0321 11.8307 10.8981 11.6969 10.7331 11.6969Z" fill="#5932EA" fill-opacity="0.65"/>
<path d="M16.184 2.05278C16.1681 1.97506 16.1219 1.9069 16.0557 1.86325L14.5548 0.873546C14.4886 0.8301 14.4083 0.814754 14.3298 0.830299C14.2521 0.846243 14.1841 0.892479 14.1405 0.958845L13.0417 2.62835C13.0304 2.64569 13.021 2.66383 13.0136 2.68236L7.20135 11.5018C7.1892 11.5204 7.17963 11.5403 7.17186 11.5608C7.13818 11.6005 7.11346 11.6487 7.1043 11.7037L6.72703 13.9584C6.7071 14.0771 6.76051 14.1959 6.86215 14.2605C6.91098 14.2912 6.96638 14.3065 7.02179 14.3065C7.08178 14.3065 7.14176 14.2884 7.19298 14.2525L9.06498 12.9445C9.08291 12.932 9.09886 12.9176 9.1132 12.9021C9.14629 12.8804 9.17658 12.8537 9.1997 12.8186L15.0152 3.99473C15.0267 3.97699 15.0361 3.95826 15.0437 3.93893L16.1404 2.27779C16.1842 2.21142 16.2 2.13071 16.184 2.05278ZM7.63642 12.1466L8.42224 12.6643L7.43413 13.3547L7.63642 12.1466ZM8.86508 12.24L7.86501 11.5811L13.3514 3.25633L14.3515 3.91541L8.86508 12.24ZM14.6748 3.41238L13.6751 2.75351L14.4755 1.5374L15.4767 2.19767L14.6748 3.41238Z" fill="#5932EA" fill-opacity="0.65"/>
<path d="M7.49711 5.03326C7.66233 5.03326 7.79605 4.89953 7.79605 4.73432C7.79605 4.5691 7.66233 4.43537 7.49711 4.43537H1.93554C1.77032 4.43537 1.6366 4.5691 1.6366 4.73432C1.6366 4.89953 1.77032 5.03326 1.93554 5.03326H7.49711Z" fill="#5932EA" fill-opacity="0.65"/>
<path d="M2.00512 7.49577H7.56529C7.73051 7.49577 7.86424 7.36204 7.86424 7.19683C7.86424 7.03161 7.73051 6.89788 7.56529 6.89788H2.00512C1.8399 6.89788 1.70618 7.03161 1.70618 7.19683C1.70618 7.36204 1.8399 7.49577 2.00512 7.49577Z" fill="#5932EA" fill-opacity="0.65"/>
</svg>
