<svg width="20" height="20" viewBox="0 0 20 20" fill="none" xmlns="http://www.w3.org/2000/svg">
<path d="M8.65937 0.78125H2.5C2.04441 0.782075 1.60772 0.963422 1.28557 1.28557C0.963422 1.60772 0.782075 2.04441 0.78125 2.5V8.65937C0.78125 8.78369 0.830638 8.90294 0.918544 8.99084C1.00645 9.07875 1.12568 9.12812 1.25 9.12812H7.40937C7.86522 9.12812 8.30237 8.94703 8.62472 8.62472C8.94703 8.30237 9.12812 7.86522 9.12812 7.40937V1.25C9.12812 1.12568 9.07875 1.00645 8.99084 0.918544C8.90294 0.830638 8.78369 0.78125 8.65937 0.78125ZM8.19062 7.40937C8.19062 7.51197 8.17041 7.61356 8.13116 7.70834C8.09191 7.80312 8.03434 7.88925 7.96181 7.96181C7.88925 8.03434 7.80312 8.09191 7.70834 8.13116C7.61356 8.17041 7.51197 8.19062 7.40937 8.19062H1.71875V2.5C1.71875 2.2928 1.80106 2.09408 1.94757 1.94757C2.09408 1.80106 2.2928 1.71875 2.5 1.71875H8.19062V7.40937Z" fill="white"/>
<path d="M7.40937 10.8719H1.25C1.12568 10.8719 1.00645 10.9213 0.918544 11.0092C0.830638 11.0971 0.78125 11.2163 0.78125 11.3406V17.5C0.782075 17.9556 0.963422 18.3923 1.28557 18.7144C1.60772 19.0366 2.04441 19.2179 2.5 19.2188H8.65937C8.78369 19.2188 8.90294 19.1694 8.99084 19.0815C9.07875 18.9936 9.12812 18.8743 9.12812 18.75V12.5906C9.12812 12.1348 8.94703 11.6976 8.62472 11.3753C8.30237 11.053 7.86522 10.8719 7.40937 10.8719ZM8.19062 18.2812H2.5C2.2928 18.2812 2.09408 18.1989 1.94757 18.0524C1.80106 17.9059 1.71875 17.7072 1.71875 17.5V11.8094H7.40937C7.51197 11.8094 7.61356 11.8296 7.70834 11.8688C7.80312 11.9081 7.88925 11.9657 7.96181 12.0382C8.03434 12.1108 8.09191 12.1969 8.13116 12.2917C8.17041 12.3864 8.19062 12.488 8.19062 12.5906V18.2812Z" fill="white"/>
<path d="M18.75 10.8719H12.5906C12.1348 10.8719 11.6976 11.053 11.3753 11.3753C11.053 11.6976 10.8719 12.1348 10.8719 12.5906V18.75C10.8719 18.8743 10.9213 18.9936 11.0092 19.0815C11.0971 19.1694 11.2163 19.2188 11.3406 19.2188H17.5C17.9556 19.2179 18.3923 19.0366 18.7144 18.7144C19.0366 18.3923 19.2179 17.9556 19.2188 17.5V11.3406C19.2188 11.2163 19.1694 11.0971 19.0815 11.0092C18.9936 10.9213 18.8744 10.8719 18.75 10.8719ZM18.2813 17.5C18.2813 17.7072 18.1989 17.9059 18.0524 18.0524C17.9059 18.1989 17.7072 18.2812 17.5 18.2812H11.8094V12.5906C11.8094 12.3834 11.8917 12.1847 12.0382 12.0382C12.1847 11.8917 12.3834 11.8094 12.5906 11.8094H18.2813V17.5Z" fill="white"/>
<path d="M12.5906 6.675H13.325V7.40937C13.325 7.86522 13.5061 8.30237 13.8284 8.62472C14.1508 8.94703 14.5879 9.12812 15.0438 9.12812C15.4996 9.12812 15.9368 8.94703 16.2591 8.62472C16.5814 8.30237 16.7625 7.86522 16.7625 7.40937V6.675H17.5C17.9559 6.675 18.393 6.49391 18.7154 6.17159C19.0377 5.84925 19.2188 5.41209 19.2188 4.95625C19.2188 4.50041 19.0377 4.06325 18.7154 3.74091C18.393 3.41859 17.9559 3.2375 17.5 3.2375H16.7625V2.5C16.7625 2.04416 16.5814 1.60699 16.2591 1.28466C15.9368 0.962331 15.4996 0.78125 15.0438 0.78125C14.5879 0.78125 14.1508 0.962331 13.8284 1.28466C13.5061 1.60699 13.325 2.04416 13.325 2.5V3.2375H12.5906C12.1348 3.2375 11.6976 3.41859 11.3753 3.74091C11.053 4.06325 10.8719 4.50041 10.8719 4.95625C10.8719 5.41209 11.053 5.84925 11.3753 6.17159C11.6976 6.49391 12.1348 6.675 12.5906 6.675ZM12.5906 4.175H13.7938C13.9181 4.175 14.0373 4.12562 14.1252 4.03772C14.2131 3.94981 14.2625 3.83056 14.2625 3.70625V2.5C14.2625 2.2928 14.3448 2.09408 14.4914 1.94757C14.6379 1.80106 14.8366 1.71875 15.0438 1.71875C15.251 1.71875 15.4497 1.80106 15.5962 1.94757C15.7427 2.09408 15.825 2.2928 15.825 2.5V3.70625C15.825 3.83056 15.8744 3.94981 15.9623 4.03772C16.0502 4.12562 16.1694 4.175 16.2938 4.175H17.5C17.7072 4.175 17.9059 4.25731 18.0524 4.40381C18.1989 4.55034 18.2813 4.74906 18.2813 4.95625C18.2813 5.16344 18.1989 5.36216 18.0524 5.50869C17.9059 5.65519 17.7072 5.7375 17.5 5.7375H16.2938C16.1694 5.7375 16.0502 5.78687 15.9623 5.87478C15.8744 5.96269 15.825 6.08194 15.825 6.20625V7.40937C15.825 7.61656 15.7427 7.81528 15.5962 7.96181C15.4497 8.10831 15.251 8.19062 15.0438 8.19062C14.8366 8.19062 14.6379 8.10831 14.4914 7.96181C14.3448 7.81528 14.2625 7.61656 14.2625 7.40937V6.20625C14.2625 6.08194 14.2131 5.96269 14.1252 5.87478C14.0373 5.78687 13.9181 5.7375 13.7938 5.7375H12.5906C12.3834 5.7375 12.1847 5.65519 12.0382 5.50869C11.8917 5.36216 11.8094 5.16344 11.8094 4.95625C11.8094 4.74906 11.8917 4.55034 12.0382 4.40381C12.1847 4.25731 12.3834 4.175 12.5906 4.175Z" fill="white"/>
</svg>
