<svg width="20" height="20" viewBox="0 0 20 20" fill="none" xmlns="http://www.w3.org/2000/svg">
<path d="M4.16665 18.3333C4.0572 18.3334 3.94883 18.3118 3.84771 18.27C3.74659 18.2281 3.65472 18.1667 3.57733 18.0893C3.49994 18.0119 3.43856 17.9201 3.39669 17.8189C3.35482 17.7178 3.33328 17.6094 3.33331 17.5V10.8333C3.33331 10.6123 3.42111 10.4004 3.57739 10.2441C3.73367 10.0878 3.94563 10 4.16665 10C4.38766 10 4.59962 10.0878 4.7559 10.2441C4.91218 10.4004 4.99998 10.6123 4.99998 10.8333V17.5C5.00001 17.6094 4.97847 17.7178 4.9366 17.8189C4.89474 17.9201 4.83335 18.0119 4.75597 18.0893C4.67858 18.1667 4.5867 18.2281 4.48558 18.27C4.38447 18.3118 4.27609 18.3334 4.16665 18.3333ZM8.33331 18.3333C8.22387 18.3334 8.11549 18.3118 8.01438 18.27C7.91326 18.2281 7.82138 18.1667 7.74399 18.0893C7.66661 18.0119 7.60522 17.9201 7.56335 17.8189C7.52149 17.7178 7.49995 17.6094 7.49998 17.5V2.50001C7.49998 2.27899 7.58778 2.06703 7.74406 1.91075C7.90034 1.75447 8.1123 1.66667 8.33331 1.66667C8.55433 1.66667 8.76629 1.75447 8.92257 1.91075C9.07885 2.06703 9.16665 2.27899 9.16665 2.50001V17.5C9.16667 17.6094 9.14514 17.7178 9.10327 17.8189C9.0614 17.9201 9.00002 18.0119 8.92263 18.0893C8.84524 18.1667 8.75337 18.2281 8.65225 18.27C8.55113 18.3118 8.44276 18.3334 8.33331 18.3333ZM12.5 18.3333C12.3905 18.3334 12.2822 18.3118 12.181 18.27C12.0799 18.2281 11.988 18.1667 11.9107 18.0893C11.8333 18.0119 11.7719 17.9201 11.73 17.8189C11.6882 17.7178 11.6666 17.6094 11.6666 17.5V7.50001C11.6666 7.27899 11.7544 7.06703 11.9107 6.91075C12.067 6.75447 12.279 6.66667 12.5 6.66667C12.721 6.66667 12.933 6.75447 13.0892 6.91075C13.2455 7.06703 13.3333 7.27899 13.3333 7.50001V17.5C13.3333 17.6094 13.3118 17.7178 13.2699 17.8189C13.2281 17.9201 13.1667 18.0119 13.0893 18.0893C13.0119 18.1667 12.92 18.2281 12.8189 18.27C12.7178 18.3118 12.6094 18.3334 12.5 18.3333ZM16.6666 18.3333C16.5572 18.3334 16.4488 18.3118 16.3477 18.27C16.2466 18.2281 16.1547 18.1667 16.0773 18.0893C15.9999 18.0119 15.9386 17.9201 15.8967 17.8189C15.8548 17.7178 15.8333 17.6094 15.8333 17.5V14.1667C15.8333 13.9457 15.9211 13.7337 16.0774 13.5774C16.2337 13.4211 16.4456 13.3333 16.6666 13.3333C16.8877 13.3333 17.0996 13.4211 17.2559 13.5774C17.4122 13.7337 17.5 13.9457 17.5 14.1667V17.5C17.5 17.6094 17.4785 17.7178 17.4366 17.8189C17.3947 17.9201 17.3334 18.0119 17.256 18.0893C17.1786 18.1667 17.0867 18.2281 16.9856 18.27C16.8845 18.3118 16.7761 18.3334 16.6666 18.3333Z" fill="#5932EA" fill-opacity="0.65"/>
</svg>
